<svg id="Capa_1" enable-background="new 0 0 512 512" height="512" viewBox="0 0 512 512" width="512" xmlns="http://www.w3.org/2000/svg"><g><g><g><g><path d="m272.314 328.358c-8.8.069-13.34-10.895-7.07-17.07 3.723-3.867 10.422-3.868 14.139 0 6.275 6.188 1.741 17.133-7.069 17.07z"/></g></g></g><g><path d="m492.775 19.223c-12.394-12.396-28.875-19.223-46.405-19.223-17.529 0-34.01 6.827-46.404 19.223l-366.632 366.669c-7.356 7.356-12.387 16.624-14.548 26.8l-18.53 87.23c-.704 3.312.316 6.755 2.711 9.149 1.895 1.895 4.447 2.929 7.071 2.929.691 0 1.388-.072 2.078-.218l87.222-18.532c10.177-2.163 19.443-7.194 26.797-14.55l118.921-118.933c3.905-3.906 3.905-10.237-.001-14.142-3.905-3.905-10.237-3.905-14.142 0l-102.668 102.679c-4.26-1.508-8.137-3.953-11.392-7.208-6.122-6.122-9.294-14.308-8.942-22.837l243.91-243.934 25.188 25.19-76.493 76.501c-3.905 3.906-3.905 10.237 0 14.142s10.238 3.905 14.142 0l178.116-178.134c25.584-25.586 25.584-67.216.001-92.801zm-180.283 115.768 25.188 25.19-243.911 243.936c-8.534.352-16.712-2.821-22.833-8.942-3.255-3.256-5.699-7.134-7.207-11.396zm-282.938 323.26 24.228 24.231-30.765 6.536zm83.677 5.069-1.239 1.239c-4.614 4.615-10.427 7.771-16.811 9.128l-18.072 3.839-42.6-42.604 3.839-18.074c1.356-6.385 4.513-12.199 9.128-16.815l1.236-1.237c2.199 3.812 4.906 7.346 8.079 10.52 8.562 8.562 19.559 13.635 31.274 14.646 1.01 11.716 6.083 22.715 14.644 31.277 3.176 3.173 6.71 5.881 10.522 8.081zm277.92-277.948-64.518-64.524 14.625-14.626 64.517 64.524zm28.766-28.769-64.517-64.524 14.624-14.626 64.518 64.524zm58.716-58.721-29.949 29.952-64.518-64.524 29.943-29.946c8.617-8.618 20.074-13.364 32.261-13.364s23.645 4.746 32.262 13.364c17.786 17.788 17.786 46.731.001 64.518z"/></g></g></svg>