<svg height="384pt" viewBox="-32 0 384 384" width="384pt" xmlns="http://www.w3.org/2000/svg"><path d="m72 384h176c17.648438 0 32-14.351562 32-32v-192h24c8.832031 0 16-7.167969 16-16v-48c0-17.648438-14.351562-32-32-32h-64v-32c0-17.648438-14.351562-32-32-32h-64c-17.648438 0-32 14.351562-32 32v32h-64c-17.648438 0-32 14.351562-32 32v48c0 8.832031 7.167969 16 16 16h24v192c0 17.648438 14.351562 32 32 32zm176-32h-176v-192h176zm-120-320h64v32h-64zm-96.015625 64h256.015625v32h-256.007812zm0 0"/><path d="m200 320c8.832031 0 16-7.167969 16-16v-96c0-8.832031-7.167969-16-16-16s-16 7.167969-16 16v96c0 8.832031 7.167969 16 16 16zm0 0"/><path d="m120 320c8.832031 0 16-7.167969 16-16v-96c0-8.832031-7.167969-16-16-16s-16 7.167969-16 16v96c0 8.832031 7.167969 16 16 16zm0 0"/></svg>